HIERARCHY
ROOT Hips
{
	OFFSET -3.958830 18.904000 13.208200
	CHANNELS 6 Xposition Yposition Zposition Zrotation Yrotation Xrotation 
	JOINT LHipJoint
	{
		OFFSET 0.000000 0.000000 0.000000
		CHANNELS 3 Zrotation Yrotation Xrotation
		JOINT LeftUpLeg
		{
			OFFSET 1.800000 -1.400000 0.085000
			CHANNELS 3 Zrotation Yrotation Xrotation
			JOINT LeftLeg
			{
				OFFSET 2.215000 -6.000000 0.000000
				CHANNELS 3 Zrotation Yrotation Xrotation
				JOINT LeftFoot
				{
					OFFSET 2.500000 -6.900000 0.000000
					CHANNELS 3 Zrotation Yrotation Xrotation
					JOINT LeftToeBase
					{
						OFFSET 0.200000 -0.500000 1.950000
						CHANNELS 3 Zrotation Yrotation Xrotation
						End Site
						{
							OFFSET 0.000000 0.000000 0.000000
						}
					}
				}
			}
		}
	}
	JOINT RHipJoint
	{
		OFFSET 0.000000 0.000000 0.000000
		CHANNELS 3 Zrotation Yrotation Xrotation
		JOINT RightUpLeg
		{
			OFFSET -1.800000 -1.400000 0.085000
			CHANNELS 3 Zrotation Yrotation Xrotation
			JOINT RightLeg
			{
				OFFSET -2.215000 -6.000000 0.000000
				CHANNELS 3 Zrotation Yrotation Xrotation
				JOINT RightFoot
				{
					OFFSET -2.500000 -6.900000 0.000000
					CHANNELS 3 Zrotation Yrotation Xrotation
					JOINT RightToeBase
					{
						OFFSET -0.200000 -0.500000 1.950000
						CHANNELS 3 Zrotation Yrotation Xrotation
						End Site
						{
							OFFSET 0.000000 0.000000 0.000000
						}
					}
				}
			}
		}
	}
	JOINT LowerBack
	{
		OFFSET 0.000000 0.000000 0.000000
		CHANNELS 3 Zrotation Yrotation Xrotation
		JOINT Spine
		{
			OFFSET -0.087000 1.940000 -0.288900
			CHANNELS 3 Zrotation Yrotation Xrotation
			JOINT Spine1
			{
				OFFSET 0.000000 1.950000 0.060000
				CHANNELS 3 Zrotation Yrotation Xrotation
				JOINT Neck
				{
					OFFSET 0.000000 0.000000 0.000000
					CHANNELS 3 Zrotation Yrotation Xrotation
					JOINT Neck1
					{
						OFFSET 0.000000 1.600000 0.340000
						CHANNELS 3 Zrotation Yrotation Xrotation
						JOINT Head
						{
							OFFSET 0.000000 1.667000 -0.240000
							CHANNELS 3 Zrotation Yrotation Xrotation
							End Site
							{
								OFFSET 0.000000 0.000000 0.000000
							}
						}
					}
				}
				JOINT LeftShoulder
				{
					OFFSET 0.000000 0.000000 0.000000
					CHANNELS 3 Zrotation Yrotation Xrotation
					JOINT LeftArm
					{
						OFFSET 2.700000 1.550000 -0.730000
						CHANNELS 3 Zrotation Yrotation Xrotation
						JOINT LeftForeArm
						{
							OFFSET 5.450000 0.000000 0.000000
							CHANNELS 3 Zrotation Yrotation Xrotation
							JOINT LeftHand
							{
								OFFSET 3.450000 0.000000 0.000000
								CHANNELS 3 Zrotation Yrotation Xrotation
								JOINT LeftHandIndex1
								{
									OFFSET 0.750000 0.000000 0.000000
									CHANNELS 3 Zrotation Yrotation Xrotation
									End Site
									{
										OFFSET 0.000000 0.000000 0.000000
									}
								}
							}
						}
					}
				}
				JOINT RightShoulder
				{
					OFFSET 0.000000 0.000000 0.000000
					CHANNELS 3 Zrotation Yrotation Xrotation
					JOINT RightArm
					{
						OFFSET -2.700000 1.550000 -0.730000
						CHANNELS 3 Zrotation Yrotation Xrotation
						JOINT RightForeArm
						{
							OFFSET -5.450000 0.000000 0.000000
							CHANNELS 3 Zrotation Yrotation Xrotation
							JOINT RightHand
							{
								OFFSET -3.450000 0.000000 0.000000
								CHANNELS 3 Zrotation Yrotation Xrotation
								JOINT RightHandIndex1
								{
									OFFSET -0.750000 0.000000 0.000000
									CHANNELS 3 Zrotation Yrotation Xrotation
									End Site
									{
										OFFSET 0.000000 0.000000 0.000000
									}
								}
							}
						}
					}
				}
			}
		}
	}
}
MOTION
Frames: 10
Frame Time: 0.016667
-0.425640 11.597090 -7.989400 -13.247556 -7.425957 12.865309 -16.322177 5.167659 8.170342 45.483242 -3.763156 -62.930726 20.509004 42.680266 147.595870 4.157238 19.483120 -1.017579 0.393890 0.415460 0.346400 18.957497 -1.430518 8.328670 -61.480714 -6.938733 -113.785086 114.819209 -44.197057 21.601277 -3.073258 -12.096209 0.477314 0.228020 -0.240280 0.018900 -3.446399 -2.358141 -13.221518 13.607418 -6.113603 78.975623 -7.997042 7.156161 -1.052877 5.918389 0.501865 -17.930014 -8.297047 1.856605 73.812126 0.682540 -3.134880 -1.713030 -28.663931 -46.059380 -0.749716 -11.453235 -34.415140 -6.488834 -14.518238 -27.018163 4.339002 -3.477283 2.928150 0.282680 -0.193850 0.285430 0.010290 17.979501 51.162515 1.947958 0.876473 26.720718 -12.252294 3.352317 22.015407 1.126899 2.653329 -1.128679 0.062730 0.103350 -0.122940 -0.073430 
-0.432890 11.593890 -7.986630 -13.061149 -7.409711 13.063957 -16.314221 5.142996 8.177442 45.589708 -3.680385 -62.951453 20.713386 42.644541 147.820894 4.147016 19.455741 -1.014694 0.393350 0.412860 0.350680 18.968195 -1.437224 8.326477 -61.315511 -6.996314 -113.907717 114.803451 -44.425525 21.656823 -3.072981 -12.105187 0.473183 0.230080 -0.239190 0.020280 -3.474310 -2.307691 -13.223993 13.566250 -6.211219 78.496005 -8.498756 7.128126 -1.076662 5.985651 0.823837 -17.801495 -7.297018 1.795502 73.820916 0.885500 -2.453740 -1.618790 -28.900139 -45.890900 -0.733380 -11.502714 -34.293681 -6.416036 -14.645878 -26.941260 4.353680 -3.487363 2.929254 0.285370 -0.188780 0.283260 0.006760 17.936645 50.693653 2.075883 1.505094 27.336893 -11.879926 2.897604 21.914209 1.033333 2.658695 -1.114744 0.057320 0.099830 -0.121640 -0.080770 
-0.432360 11.594180 -7.985580 -13.142173 -7.333173 13.180508 -16.316146 5.097524 8.228506 45.903841 -3.509142 -63.059155 20.634800 43.246885 148.129124 4.189591 19.544193 -1.020861 0.387270 0.403900 0.357820 18.973214 -1.423227 8.314056 -61.357588 -7.242039 -113.818709 114.888484 -44.364855 21.464584 -3.067625 -12.086662 0.479409 0.219910 -0.241980 0.022950 -3.479357 -2.288242 -13.244306 13.850235 -6.507178 78.201106 -8.876291 7.154624 -1.011172 6.155369 1.148754 -18.110517 -6.522069 1.748943 73.844183 0.717330 -1.803200 -1.260590 -29.046361 -45.970493 -0.683693 -11.461040 -34.134578 -6.533827 -14.528017 -26.861188 4.315765 -3.490893 2.930324 0.282680 -0.184260 0.284680 0.002960 17.669916 50.554663 2.401374 1.654050 27.302729 -11.861438 2.734228 22.012225 1.032150 2.652288 -1.110396 0.059220 0.091360 -0.123900 -0.085370 
-0.431230 11.587860 -7.985680 -13.135005 -7.059024 13.306916 -16.313311 5.103819 8.257641 45.904787 -3.437663 -63.422375 20.780563 43.229376 148.385922 4.205056 19.509447 -1.007415 0.371110 0.395290 0.343480 18.975211 -1.424117 8.295609 -61.837847 -7.919636 -113.333707 115.791268 -43.342031 20.572629 -3.052358 -12.005333 0.508774 0.205070 -0.238200 0.021830 -3.472490 -2.319487 -13.252005 14.235551 -6.846142 77.785129 -8.987698 7.130212 -1.007317 6.249257 1.152348 -18.780135 -6.792416 2.732633 73.411192 0.699370 -0.792830 -0.901250 -29.260143 -46.169915 -0.514685 -11.376903 -33.775213 -6.871781 -14.001974 -26.721270 4.156982 -3.485722 2.932704 0.278260 -0.179110 0.285330 0.003170 17.701135 50.627863 2.986009 1.611587 26.859896 -12.051084 2.687076 22.353562 1.093295 2.626655 -1.104574 0.062100 0.085920 -0.120360 -0.081950 
-0.430890 11.586930 -7.987090 -13.175584 -6.929272 13.593372 -16.317927 5.092505 8.293563 45.932380 -3.366861 -63.912761 20.735682 43.657688 148.615426 4.223316 19.603955 -1.030643 0.394350 0.428920 0.360010 18.973174 -1.417881 8.274371 -62.099632 -8.331904 -113.172847 116.122455 -42.537691 20.178837 -3.053990 -11.946326 0.521938 0.224810 -0.253440 0.022020 -3.459699 -2.350625 -13.259238 14.193203 -6.826673 77.743866 -8.692807 7.106333 -1.126041 6.221372 0.832360 -18.587927 -7.520667 3.399405 72.392941 0.342220 -0.282870 -1.964000 -29.489291 -46.172833 -0.562484 -11.644349 -33.996653 -6.728731 -14.239386 -26.441901 4.131650 -3.481927 2.929146 0.284970 -0.186920 0.299790 0.006290 18.003723 50.771251 2.807410 1.568958 26.826753 -12.113537 2.751280 22.539550 1.106753 2.615302 -1.111198 0.067010 0.091020 -0.130590 -0.085490 
-0.423920 11.583530 -7.987510 -13.157957 -6.941255 13.865522 -16.301827 5.061527 8.314066 45.730944 -3.368863 -64.287811 20.486598 44.362488 148.659792 4.254047 19.823727 -1.081698 0.420400 0.458170 0.370340 18.988287 -1.458670 8.250033 -62.705034 -8.899711 -112.842398 116.783986 -41.313053 19.542941 -3.047182 -11.864067 0.533487 0.250580 -0.263490 0.020420 -3.510954 -2.259908 -13.248391 14.404968 -6.977832 77.824297 -8.805846 7.020389 -1.408186 6.076701 0.317197 -17.900093 -8.813022 3.718605 71.398509 0.573570 -0.925690 -3.276780 -29.745381 -45.823536 -0.910131 -11.957690 -34.428376 -6.402591 -14.649392 -26.544277 4.232673 -3.478604 2.924746 0.298310 -0.201620 0.306930 0.006820 18.506050 50.463028 2.748921 1.756395 26.915106 -12.209336 2.365275 23.124757 1.062325 2.595942 -1.129824 0.066460 0.101960 -0.133300 -0.087120 
-0.434980 11.586460 -7.990130 -13.489020 -7.359649 14.169059 -16.304645 4.958504 8.377980 46.252167 -2.832181 -64.080987 20.215469 45.763355 148.906365 4.318429 20.124740 -1.132846 0.433840 0.474970 0.372810 19.001358 -1.446605 8.240680 -62.381010 -8.496126 -113.589080 116.564853 -41.347116 19.717733 -3.056705 -11.892854 0.523040 0.271370 -0.260520 0.020660 -3.561980 -2.137404 -13.266123 14.309323 -6.734416 77.523713 -9.190236 7.175024 -1.401817 6.054984 0.026378 -17.117852 -9.226382 3.793956 70.927084 0.486580 -1.069050 -3.922530 -29.497541 -45.216069 -1.127678 -11.917846 -34.464890 -6.326461 -14.577770 -27.298263 4.353284 -3.484330 2.927912 0.302010 -0.199780 0.305180 0.009950 18.193631 50.108787 2.279556 2.077878 27.671299 -11.585453 2.759918 22.831500 1.090286 2.603252 -1.121560 0.059990 0.112770 -0.132210 -0.089350 
-0.427830 11.598620 -7.994790 -13.606235 -7.274944 14.252655 -16.298875 4.860763 8.457330 46.122254 -2.748306 -64.234619 18.607755 49.172227 148.581662 4.567733 21.149570 -1.298207 0.441330 0.482030 0.377390 19.017121 -1.442925 8.213826 -62.743357 -8.666667 -113.140119 116.192286 -41.302704 19.710069 -3.049034 -11.881617 0.519296 0.282120 -0.263890 0.019310 -3.600905 -2.063817 -13.285532 14.947245 -7.188633 77.604916 -9.754294 6.956365 -1.452465 6.241829 -0.102564 -16.664513 -9.508923 3.851414 70.292381 0.502760 -1.268740 -4.537230 -29.799156 -44.944324 -1.140775 -11.875951 -34.366089 -6.658330 -13.845776 -28.147441 4.298595 -3.479384 2.938241 0.309130 -0.204030 0.305750 0.007210 17.965378 49.864686 2.054321 1.898532 27.758665 -11.310790 2.856013 22.788001 1.117775 2.596429 -1.114493 0.055250 0.118460 -0.130050 -0.093550 
-0.419860 11.587030 -7.993820 -13.709795 -7.442314 14.213069 -16.302936 4.831899 8.483758 46.001139 -2.704560 -64.284324 18.422285 50.002624 148.840274 4.622683 21.385178 -1.336151 0.448870 0.487210 0.387050 19.015374 -1.439676 8.204703 -62.955294 -8.787264 -113.022905 116.459429 -41.182891 19.463995 -3.049814 -11.870503 0.514274 0.289410 -0.265490 0.025290 -3.607140 -2.045647 -13.291726 15.241919 -7.208956 77.478792 -9.934416 6.997438 -1.341922 6.403604 0.014697 -16.425680 -9.182975 3.659376 70.205665 0.511460 -1.299820 -4.928880 -30.109833 -44.808385 -1.066196 -12.256642 -34.506927 -6.612138 -13.438982 -28.237969 4.171277 -3.488800 2.933671 0.314860 -0.204400 0.309530 0.003690 17.857326 49.746933 1.824545 1.663668 27.734544 -11.104349 3.266849 22.539462 1.176903 2.594368 -1.105154 0.054030 0.120600 -0.128080 -0.097480 
-0.440550 11.592160 -7.996830 -13.647093 -7.815016 13.906036 -16.316521 4.859357 8.461280 46.130160 -2.560480 -63.535297 18.773830 49.485689 148.865367 4.567486 21.186603 -1.311338 0.460280 0.502450 0.393960 19.002261 -1.430326 8.214458 -62.796135 -8.145255 -113.414499 116.408498 -41.017416 19.673071 -3.067502 -11.888609 0.508374 0.297270 -0.272090 0.027410 -3.589872 -2.059759 -13.287632 14.459972 -6.471995 77.994360 -9.798329 7.148347 -1.624751 6.335526 -0.028181 -16.243306 -9.053362 3.514890 70.221882 0.585900 -1.334200 -5.443440 -30.117257 -44.676368 -1.000335 -12.087012 -34.244363 -6.692268 -13.567628 -28.452486 4.228864 -3.478647 2.936641 0.322880 -0.211090 0.319760 0.005190 18.070144 49.900740 1.472962 1.773115 28.114866 -10.904450 3.776789 22.228631 1.230750 2.610750 -1.096795 0.057200 0.124460 -0.131440 -0.097630 
